<svg width="37" height="36" viewBox="0 0 37 36" fill="none" xmlns="http://www.w3.org/2000/svg">
<g clip-path="url(#clip0_2_14)">
<path d="M15.7291 20.0494C15.7291 19.9968 15.6642 19.9968 15.7291 19.944C15.7291 19.8913 15.7939 19.8913 15.7939 19.8913C16.8966 19.5747 17.7399 19.1526 18.3237 18.5723C19.1669 17.7808 19.6209 16.7257 19.6209 15.4594C19.6209 14.6681 19.4263 13.9294 19.102 13.2963C18.7777 12.6632 18.1938 12.1355 17.4156 11.6607C16.702 11.2386 15.7939 10.9748 14.6912 10.7638C13.6533 10.5528 12.3561 10.5 10.929 10.5H1.19932C1.0696 10.5 1.00474 10.5528 1.00474 10.6583V10.7638C1.00474 10.8166 1.00474 10.8693 1.0696 10.8693L3.92366 13.0325C3.98851 13.0852 3.98851 13.0852 4.05337 13.0852H9.11283C10.5399 13.0852 11.7723 13.138 12.7453 13.1908C13.6533 13.2435 14.4317 13.4018 14.9507 13.5601C15.4046 13.7183 15.7291 13.9294 15.9235 14.1932C16.1182 14.5098 16.2481 14.9319 16.2481 15.4066C16.2481 15.9343 16.1182 16.3564 15.9235 16.6202C15.7291 16.884 15.4046 17.0949 14.9507 17.2532C14.3669 17.4643 13.6534 17.5698 12.6804 17.6226C11.7074 17.6753 10.475 17.7281 8.98309 17.7281H3.92366C3.85877 17.7281 3.85877 17.7281 3.79392 17.7281L0.939859 19.2581C0.875 19.3109 0.875 19.3636 0.875 19.4164V26.5391C0.875 26.6445 0.939858 26.6972 1.0696 26.6972H3.92366C4.05337 26.6972 4.11823 26.6445 4.11823 26.5391V20.4715C4.11823 20.4189 4.18311 20.366 4.24797 20.366H11.9669C12.0317 20.366 12.0317 20.366 12.0966 20.4189L17.8695 26.6972C17.9345 26.75 17.9345 26.75 17.9992 26.75H21.5669C21.6318 26.75 21.6966 26.6972 21.7615 26.6445C21.8262 26.5917 21.7615 26.5389 21.7615 26.4862L15.7291 20.0494ZM21.3723 11.7135C21.5669 11.819 21.7615 11.9245 21.9561 11.9773C22.475 12.2411 22.8641 12.6104 23.1886 12.9797C23.2533 13.0325 23.3183 13.0325 23.383 13.0325H36.6804C36.7453 13.0325 36.81 13.0325 36.81 12.9797C36.875 12.9269 36.875 12.9269 36.875 12.8742V10.6583C36.875 10.5528 36.81 10.5 36.6804 10.5H21.4372C21.3073 10.5 21.2426 10.5528 21.2426 10.6583V11.5024C21.2426 11.608 21.3073 11.6607 21.3723 11.7135ZM36.6154 24.2175H24.2911C24.2264 24.2175 24.1615 24.2704 24.0965 24.323C24.0318 24.3758 24.0965 24.4285 24.0965 24.4813L26.2371 26.6972C26.3021 26.75 26.3021 26.75 26.3668 26.75H36.5507C36.6154 26.75 36.6804 26.75 36.6804 26.6972C36.7453 26.6445 36.7453 26.6445 36.7453 26.5917V24.3758C36.875 24.323 36.7453 24.2175 36.6154 24.2175ZM23.8372 16.9894C23.7722 16.9894 23.6425 17.0423 23.6425 17.0949C23.4479 17.5698 23.1236 18.0447 22.7344 18.414C22.4101 18.7306 21.9561 18.9943 21.4372 19.2053C21.3723 19.2581 21.3073 19.3109 21.3723 19.3636C21.3723 19.4164 21.5019 19.4692 21.5669 19.4692H35.9668C36.0318 19.4692 36.0965 19.4692 36.0965 19.4164C36.1615 19.3636 36.1615 19.3636 36.1615 19.3109V17.0949C36.1615 16.9894 36.0965 16.9366 35.9668 16.9366H23.8372V16.9894Z" fill="white"/>
</g>
<defs>
<clipPath id="clip0_2_14">
<rect width="36" height="36" fill="white" transform="translate(0.875)"/>
</clipPath>
</defs>
</svg>
